<svg xmlns="http://www.w3.org/2000/svg" viewBox="0 0 117.1 116.3">
  <defs>
    <style>
      .cls-1 {
        fill: #d8eaf8;
      }

      .cls-1, .cls-2, .cls-3, .cls-4, .cls-5 {
        stroke: #3d729a;
        stroke-linecap: round;
        stroke-linejoin: round;
      }

      .cls-1, .cls-2, .cls-3, .cls-4 {
        stroke-width: 2px;
      }

      .cls-2, .cls-5 {
        fill: #5693ab;
      }

      .cls-3 {
        fill: #fff;
      }

      .cls-4 {
        fill: none;
      }
    </style>
  </defs>
  <title>Backup</title>
  <g id="Camada_2" data-name="Camada 2">
    <g id="Camada_1-2" data-name="Camada 1">
      <polygon class="cls-1" points="39.9 12.2 32.7 28.1 107.5 28.1 114.6 12.2 39.9 12.2"/>
      <polygon class="cls-2" points="33.1 28.1 8.2 46.8 82.9 46.8 107.8 28.1 33.1 28.1"/>
      <g id="Nuvem">
        <path class="cls-3" d="M76.3,58A24.9,24.9,0,0,0,58.1,12,18.6,18.6,0,0,0,28.4,6,15.6,15.6,0,0,0,5.6,27.1L11.9,34,45.7,70.5l6.3,6.9A15.6,15.6,0,0,0,76.3,58Z"/>
        <path class="cls-3" d="M47.8,17.8A24.8,24.8,0,0,1,58.1,12,24.8,24.8,0,0,0,47.8,17.8Z"/>
        <path class="cls-3" d="M28.4,6a15.5,15.5,0,0,1,3.3,5.5A15.5,15.5,0,0,0,28.4,6Z"/>
        <path class="cls-4" d="M76.3,58a24.5,24.5,0,0,1-3.5,1.6,24.9,24.9,0,0,1-9,1.3,24.9,24.9,0,0,0,9-1.3A24.5,24.5,0,0,0,76.3,58Z"/>
      </g>
      <rect class="cls-3" x="8.2" y="46.8" width="74.7" height="68.48"/>
      <polygon class="cls-2" points="107.8 96.6 82.9 115.3 82.9 46.8 107.8 28.1 107.8 96.6"/>
      <polygon class="cls-1" points="8.2 46.8 1 62.7 75.7 62.7 82.9 46.8 8.2 46.8"/>
      <polygon class="cls-1" points="107.1 28.3 82.2 47 91.2 59.9 116.1 41.2 107.1 28.3"/>
      <rect class="cls-5" x="15.6" y="97.4" width="23.2" height="10.79"/>
    </g>
  </g>
</svg>
