<svg xmlns="http://www.w3.org/2000/svg" viewBox="0 0 385.6 385.6">
  <defs>
    <style>
      .cls-1, .cls-3, .cls-5 {
        fill: none;
      }

      .cls-1, .cls-2, .cls-3, .cls-4, .cls-5, .cls-6, .cls-7, .cls-8 {
        stroke: #3d729a;
        stroke-linecap: round;
        stroke-linejoin: round;
      }

      .cls-1, .cls-2, .cls-8 {
        stroke-width: 3px;
      }

      .cls-2, .cls-7 {
        fill: #5693ab;
      }

      .cls-3, .cls-4, .cls-6, .cls-7 {
        stroke-width: 2px;
      }

      .cls-4, .cls-8 {
        fill: #d8eaf8;
      }

      .cls-5 {
        stroke-width: 4px;
      }

      .cls-6 {
        fill: #fff;
      }
    </style>
  </defs>
  <title>Ativo 10</title>
  <g id="Camada_2" data-name="Camada 2">
    <g id="Camada_1-2" data-name="Camada 1">
      <g>
        <path class="cls-1" d="M338,145.6a85.2,85.2,0,0,0,3-22.1A86.1,86.1,0,0,0,178.6,83.8,64.4,64.4,0,0,0,93.5,145a53.8,53.8,0,0,0-8.4,106.9V192.8a23.9,23.9,0,0,1,23.9-23.9H324.3a23.9,23.9,0,0,1,23.9,23.9v56.6A53.7,53.7,0,0,0,338,145.6Z"/>
        <path class="cls-2" d="M324.3,168.9a23.9,23.9,0,0,1,23.9,23.9V348.2H85.2V192.8a23.9,23.9,0,0,1,23.9-23.9Z"/>
        <path class="cls-2" d="M85.2,251.9A53.8,53.8,0,0,1,93.6,145a64.5,64.5,0,0,1,49.2-62.6V25A23.6,23.6,0,0,0,119.2,1.5H25A23.5,23.5,0,0,0,1.5,25V229A23.5,23.5,0,0,0,25,252.6H85.2Z"/>
        <path class="cls-3" d="M47,21.1A3.1,3.1,0,1,1,43.9,18,3.1,3.1,0,0,1,47,21.1Z"/>
        <path class="cls-3" d="M56.4,21.1h0Z"/>
        <path class="cls-4" d="M39.8,198.8A53.8,53.8,0,0,1,93.6,145,64.5,64.5,0,0,1,131,86.5V44.7a3.9,3.9,0,0,0-3.9-3.9H17.2a3.9,3.9,0,0,0-3.9,3.9V209.4a3.9,3.9,0,0,0,3.9,3.9H41.8A53.8,53.8,0,0,1,39.8,198.8Z"/>
        <path class="cls-5" d="M168.9,123.5a85.6,85.6,0,0,1,9.7-39.7A85.6,85.6,0,0,0,168.9,123.5Z"/>
        <rect class="cls-6" x="246.6" y="204.8" width="83.7" height="143.47"/>
        <rect class="cls-6" x="103.1" y="300.4" width="143.5" height="47.82"/>
        <rect class="cls-6" x="103.1" y="204.8" width="143.5" height="95.65"/>
        <path class="cls-6" d="M318.3,192.8h6a6,6,0,0,1,6,6v6H318.3Z"/>
        <path class="cls-6" d="M103.1,204.8v-6a6,6,0,0,1,6-6H294.4v12Z"/>
        <path class="cls-3" d="M225.7,184.4a3,3,0,1,0,0-6H207.8a3,3,0,1,0,0,6Z"/>
        <rect class="cls-6" x="306.4" y="192.8" width="12" height="11.95"/>
        <rect class="cls-6" x="294.4" y="192.8" width="11.9" height="11.95"/>
        <path class="cls-7" d="M312.4,216.7a6,6,0,0,1,6,6v41.9a6,6,0,0,1-6,6H264.5a6,6,0,0,1-6-6V222.7a6,6,0,0,1,6-6Z"/>
        <path class="cls-3" d="M168.9,348.2V318.3a6,6,0,0,0-6-6H121.1a6,6,0,0,0-6,6v29.9Z"/>
        <rect class="cls-3" x="115.1" y="264.5" width="71.7" height="23.91"/>
        <path class="cls-4" d="M228.7,216.7a6,6,0,0,1,6,6v23.9a6,6,0,0,1-6,6H121.1a6,6,0,0,1-6-6V222.7a6,6,0,0,1,6-6Z"/>
        <rect class="cls-3" x="258.5" y="282.5" width="59.8" height="11.96"/>
        <rect class="cls-3" x="258.5" y="306.4" width="35.9" height="11.95"/>
        <path class="cls-8" d="M384.1,366.2v-6a12,12,0,0,0-12-12H61.3a12,12,0,0,0-12,12v6l25.2,12.6a60.4,60.4,0,0,0,22.7,5.3H336.3a60.2,60.2,0,0,0,22.6-5.3Z"/>
        <path class="cls-1" d="M49.3,366.2h0Z"/>
        <path class="cls-1" d="M252.6,348.2l-3.9,5.4a7.8,7.8,0,0,1-5.7,2.9H190.4a7.9,7.9,0,0,1-5.7-2.9l-3.9-5.4Z"/>
        <rect class="cls-3" x="180.8" y="312.4" width="53.8" height="11.95"/>
        <rect class="cls-7" x="198.8" y="264.5" width="35.9" height="11.96"/>
        <path class="cls-1" d="M338,145.6a85.2,85.2,0,0,0,3-22.1A86.1,86.1,0,0,0,178.6,83.8,64.4,64.4,0,0,0,93.5,145a53.8,53.8,0,0,0-8.4,106.9V192.8a23.9,23.9,0,0,1,23.9-23.9H324.3a23.9,23.9,0,0,1,23.9,23.9v56.6A53.7,53.7,0,0,0,338,145.6Z"/>
        <rect class="cls-7" x="31.2" y="58.7" width="81.8" height="23.91"/>
        <path class="cls-6" d="M92.8,144a64.7,64.7,0,0,1,17.6-44.5H31.2v53.1H64A52.3,52.3,0,0,1,92.8,144Z"/>
      </g>
    </g>
  </g>
</svg>
