<svg xmlns="http://www.w3.org/2000/svg" viewBox="0 0 380.1 380.3">
  <defs>
    <style>
      .cls-1, .cls-5 {
        fill: none;
      }

      .cls-1, .cls-2, .cls-3, .cls-4, .cls-5 {
        stroke: #3d729a;
        stroke-linecap: round;
        stroke-linejoin: round;
      }

      .cls-1, .cls-2, .cls-3 {
        stroke-width: 3px;
      }

      .cls-2 {
        fill: #5693ab;
      }

      .cls-3, .cls-4 {
        fill: #d8eaf8;
      }

      .cls-4, .cls-5 {
        stroke-width: 2px;
      }
    </style>
  </defs>
  <title>Ativo 9</title>
  <g id="Camada_2" data-name="Camada 2">
    <g id="Camada_1-2" data-name="Camada 1">
      <g id="Camada_1-2-2" data-name="Camada 1-2">
        <path class="cls-1" d="M328.6,120a93.4,93.4,0,0,0,3.3-24.3A94.4,94.4,0,0,0,153.8,52.2a70.7,70.7,0,0,0-93.3,67.1,59,59,0,0,0,0,118H75.2l-1.8-5.1a12.5,12.5,0,0,1-.9-4.6h0a12.2,12.2,0,0,1,12.2-12.2V203.2a36.6,36.6,0,0,1,69.4-16.4l-.2.5a42.2,42.2,0,0,1,72.8.1l-.2-.6a36.6,36.6,0,0,1,69.4,16.4v12.2a12.2,12.2,0,0,1,12.2,12.2h0a12,12,0,0,1-.9,4.6l-1.8,5.1h14.7A59,59,0,0,0,328.6,120Z"/>
        <path class="cls-1" d="M147.8,223.1a14.2,14.2,0,0,0-14.2,14.2h0a14.1,14.1,0,0,0,1,5.3l6.6,18.6a6.9,6.9,0,0,0,1.5,2.3,7,7,0,0,0,5.1,2.2,42.5,42.5,0,0,0,85,0,7.1,7.1,0,0,0,5.1-2.2,7.7,7.7,0,0,0,1.5-2.3l6.6-18.6a14.1,14.1,0,0,0,1-5.3h0a14.2,14.2,0,0,0-14.2-14.2V209a42.5,42.5,0,0,0-85,0h0Z"/>
        <path class="cls-2" d="M147.8,223.1l10.6-14.2a48.2,48.2,0,0,0,33.5,14.2,20.3,20.3,0,0,1-5.7-14.2,36.2,36.2,0,0,0,25.1,10.6h0a15.2,15.2,0,0,1-4.3-10.6h0a36,36,0,0,0,17.5,6l8.4,8.2V209a42.5,42.5,0,0,0-85,0h0v14.2Z"/>
        <path class="cls-1" d="M160.4,328.4A28.2,28.2,0,0,0,169,308v-5.7a42.3,42.3,0,0,0,42.5,0V308a28.2,28.2,0,0,0,8.6,20.4A42.3,42.3,0,0,1,160.4,328.4Z"/>
        <path class="cls-1" d="M220.2,328.4a28.3,28.3,0,0,0,9.1,5.9l51.3,21.2a14.5,14.5,0,0,1,4.5,2.9,14.2,14.2,0,0,1,4.3,10.2v10.2H91.2V368.7a14.1,14.1,0,0,1,8.9-13.1l51.3-21.2a28.4,28.4,0,0,0,9.1-5.9A42.3,42.3,0,0,0,220.2,328.4Z"/>
        <path class="cls-1" d="M308.1,227.6a12.2,12.2,0,0,0-12.2-12.2h0V203.2a36.6,36.6,0,0,0-69.4-16.4,42.2,42.2,0,0,1,6.3,22.2v14.2A14.2,14.2,0,0,1,247,237.4h0a14.3,14.3,0,0,1-1,5.3l-6.6,18.6a7.6,7.6,0,0,1-1.5,2.3,7,7,0,0,1-5.1,2.2,42.3,42.3,0,0,1-1.3,10.3,36.5,36.5,0,0,0,64.4-23.8,6.1,6.1,0,0,0,4.4-1.9,6.2,6.2,0,0,0,1.3-2l5.7-16a11.9,11.9,0,0,0,.9-4.6Z"/>
        <path class="cls-2" d="M259.2,166.5h0a36.6,36.6,0,0,0-32.7,20.3,42.2,42.2,0,0,1,6,17,38.9,38.9,0,0,0,54.3-.6l9.2,12.2V203.2a36.7,36.7,0,0,0-36.7-36.7Z"/>
        <path class="cls-1" d="M121.4,288.8a36.5,36.5,0,0,0,27.7-12.9,42.5,42.5,0,0,1-1.3-10.3,7,7,0,0,1-6.6-4.4l-6.6-18.6a14.2,14.2,0,0,1-1-5.3h0a14.2,14.2,0,0,1,14.2-14.2V209a42.3,42.3,0,0,1,6.3-22.2,36.6,36.6,0,0,0-69.4,16.4v12.2a12.2,12.2,0,0,0-12.2,12.2h0a12.5,12.5,0,0,0,.9,4.6l5.7,16a6.1,6.1,0,0,0,5.7,3.8,36.7,36.7,0,0,0,36.6,36.8Z"/>
        <path class="cls-2" d="M94,203a39.4,39.4,0,0,1,27.4,11.6v-.2a39.4,39.4,0,0,1,26.8-11.1,42.3,42.3,0,0,1,5.8-16.4,36.6,36.6,0,0,0-69.4,16.4v12.2l9.2-12.2Z"/>
        <path class="cls-1" d="M143.1,95.7a93.9,93.9,0,0,1,10.7-43.5A93.9,93.9,0,0,0,143.1,95.7Z"/>
        <path class="cls-1" d="M328.6,120a91.7,91.7,0,0,1-25.5,43.6A91.7,91.7,0,0,0,328.6,120Z"/>
        <path class="cls-1" d="M60.5,119.3a58.7,58.7,0,0,1,23.8,5A58.6,58.6,0,0,0,60.5,119.3Z"/>
        <path class="cls-3" d="M151.3,334.3a27.8,27.8,0,0,0,16.3-17.7l-12.5-5.2a24.2,24.2,0,0,1-7.8-5.1,36.5,36.5,0,0,1-51.6,0,24.4,24.4,0,0,1-7.8,5.1L43.5,329.8a12.3,12.3,0,0,0-7.6,11.3v8.8h77.9Z"/>
        <path class="cls-1" d="M95.6,306.4a36.5,36.5,0,0,0,51.6,0h0a24.3,24.3,0,0,1-7.5-17.6v-5a36.4,36.4,0,0,1-36.7,0v5a24.4,24.4,0,0,1-7.5,17.6h.1Z"/>
        <path class="cls-3" d="M229.3,334.3A27.8,27.8,0,0,1,213,316.6l12.5-5.2a24.1,24.1,0,0,0,7.8-5.1,36.5,36.5,0,0,0,51.6,0,24.4,24.4,0,0,0,7.8,5.1l44.4,18.4a12.3,12.3,0,0,1,7.7,11.3v8.8H266.9Z"/>
        <path class="cls-1" d="M285,306.4a36.5,36.5,0,0,1-51.6,0h0a24.4,24.4,0,0,0,7.5-17.6v-5a36.4,36.4,0,0,0,36.7,0v5a24.4,24.4,0,0,0,7.5,17.6H285Z"/>
        <path class="cls-4" d="M169.2,89.4l-1.3,1.4-1.2,1.6,4.4,6.5a16.3,16.3,0,0,0-1.5,4.6l-7.4,2.6a24.2,24.2,0,0,0,.3,3.9l7.7,1.5a16.5,16.5,0,0,0,2.2,4.4L169,123l1.4,1.4,1.6,1.2,6.5-4.4a16.6,16.6,0,0,0,4.6,1.5l2.6,7.4a23.5,23.5,0,0,0,3.9-.3l1.5-7.7a16.3,16.3,0,0,0,4.4-2.2l7.1,3.4,1.4-1.4,1.2-1.5-4.4-6.5a16.2,16.2,0,0,0,1.5-4.6l7.4-2.6a23.8,23.8,0,0,0-.3-3.9l-7.7-1.5a16.5,16.5,0,0,0-2.2-4.4l3.4-7.1-1.4-1.4-1.6-1.2-6.5,4.4a16.6,16.6,0,0,0-4.6-1.5l-2.6-7.4a23.3,23.3,0,0,0-3.9.3l-1.5,7.7a16.2,16.2,0,0,0-4.4,2.2Zm22.1,10.7a8.3,8.3,0,1,1-11.7.8h0A8.3,8.3,0,0,1,191.3,100.1Z"/>
        <path class="cls-4" d="M217.3,55.6l2,4.1c2.3,4.7,0,9.5-5.1,10.6l-4.4,1c-2.7.6-3.1,2.3-.8,3.9l3.7,2.5c4.3,2.9,4.7,8.2.8,11.7l-3.3,3c-2.1,1.9-1.5,3.6,1.3,3.8l4.5.3c5.2.4,8.2,4.8,6.6,9.7l-1.4,4.3c-.8,2.7.5,3.8,3,2.6l4.1-2c4.7-2.3,9.5,0,10.6,5.1l1,4.4c.6,2.7,2.4,3.1,3.9.8l2.5-3.7c2.9-4.3,8.2-4.7,11.7-.8l3,3.3c1.9,2.1,3.6,1.5,3.8-1.3l.3-4.5c.4-5.2,4.8-8.2,9.7-6.6l4.3,1.4c2.6.8,3.8-.5,2.6-3l-2-4.1c-2.3-4.7,0-9.5,5.1-10.6l4.4-1c2.7-.6,3.1-2.3.8-3.9l-3.7-2.5c-4.3-2.9-4.7-8.2-.8-11.7l3.3-3c2.1-1.9,1.5-3.6-1.3-3.8l-4.5-.3c-5.2-.4-8.2-4.8-6.6-9.7l1.4-4.3c.8-2.7-.5-3.8-3-2.6l-4.1,2c-4.7,2.3-9.5,0-10.6-5.1l-1-4.4c-.6-2.7-2.3-3.1-3.9-.8l-2.5,3.7c-2.9,4.3-8.2,4.7-11.7.8l-3-3.3c-1.9-2.1-3.6-1.5-3.8,1.3l-.3,4.5c-.4,5.2-4.8,8.2-9.7,6.6l-4.3-1.4C217.2,51.8,216.1,53.1,217.3,55.6Zm41.6,14.5a14.3,14.3,0,1,1-20.2,1.5h.1A14.3,14.3,0,0,1,258.9,70.1Z"/>
        <path class="cls-5" d="M233.9,98.9a23.8,23.8,0,1,0-2.4-33.6,23.8,23.8,0,0,0,2.4,33.6Z"/>
      </g>
    </g>
  </g>
</svg>
