<svg xmlns="http://www.w3.org/2000/svg" viewBox="0 0 127.9 114.9">
  <defs>
    <style>
      .cls-1, .cls-4 {
        fill: none;
      }

      .cls-1, .cls-2, .cls-3, .cls-4 {
        stroke: #3d729a;
        stroke-linecap: round;
        stroke-linejoin: round;
      }

      .cls-1, .cls-3 {
        stroke-width: 2px;
      }

      .cls-2 {
        fill: #d8eaf8;
      }

      .cls-3 {
        fill: #5693ab;
      }
    </style>
  </defs>
  <title>Controle</title>
  <g id="Camada_2" data-name="Camada 2">
    <g id="Camada_1-2" data-name="Camada 1">
      <path class="cls-1" d="M56.3,29.2a28.1,28.1,0,0,1,3.2-13A28.1,28.1,0,0,0,56.3,29.2Z"/>
      <path class="cls-1" d="M111.8,36.5a29.2,29.2,0,0,1-1.4,4.1,28.3,28.3,0,0,1-6.2,8.9,28.3,28.3,0,0,0,6.2-8.9A29.1,29.1,0,0,0,111.8,36.5Z"/>
      <path class="cls-1" d="M31.4,36.3a17.5,17.5,0,0,1,6.9,2.2A17.5,17.5,0,0,0,31.4,36.3Z"/>
      <path class="cls-2" d="M96.1,38.5c0-.5.1-1,.1-1.5s0-1-.1-1.5L90.5,34a12.1,12.1,0,0,0-1.4-3.3L92,25.6a17.9,17.9,0,0,0-2.1-2.1l-5.1,2.9A12.3,12.3,0,0,0,81.5,25L80,19.4H77.1L75.5,25a12.3,12.3,0,0,0-3.3,1.4l-5.1-2.9a17.4,17.4,0,0,0-2.1,2.1L68,30.7A12.1,12.1,0,0,0,66.6,34l-5.6,1.5c0,.5-.1,1-.1,1.5s0,1,.1,1.5L66.6,40A12,12,0,0,0,68,43.3l-2.9,5.1a17.7,17.7,0,0,0,2.1,2.1l5.1-2.9a12.2,12.2,0,0,0,3.3,1.4l1.5,5.6H80l1.5-5.6a12.3,12.3,0,0,0,3.3-1.4l5.1,2.9A17.2,17.2,0,0,0,92,48.4l-2.9-5.1A12,12,0,0,0,90.5,40ZM78.5,43.2A6.2,6.2,0,1,1,84.7,37,6.2,6.2,0,0,1,78.5,43.2Z"/>
      <path class="cls-3" d="M71.6,80.7l-3.1-1.3a5.3,5.3,0,0,1-2.3-8.4l2-2.7c1.2-1.7.6-2.8-1.5-2.6l-3.3.4A5.3,5.3,0,0,1,57.3,60l.4-3.3c.2-2-.9-2.7-2.6-1.5l-2.7,2A5.3,5.3,0,0,1,44,54.9l-1.3-3.1c-.8-1.9-2.1-1.9-3,0l-1.3,3.1A5.3,5.3,0,0,1,30,57.2l-2.7-2c-1.7-1.2-2.8-.6-2.6,1.5l.4,3.3A5.3,5.3,0,0,1,19,66.1l-3.3-.4c-2-.2-2.7.9-1.5,2.6l2,2.7A5.3,5.3,0,0,1,14,79.4l-3.1,1.3c-1.9.8-1.9,2.1,0,3L14,85a5.3,5.3,0,0,1,2.3,8.4l-2,2.7c-1.2,1.7-.6,2.8,1.5,2.6l3.3-.4a5.3,5.3,0,0,1,6.2,6.2l-.4,3.3c-.2,2,.9,2.7,2.6,1.5l2.7-2a5.3,5.3,0,0,1,8.4,2.3l1.3,3.1c.8,1.9,2.1,1.9,3,0l1.3-3.1a5.3,5.3,0,0,1,8.4-2.3l2.7,2c1.7,1.2,2.8.6,2.6-1.5l-.4-3.3a5.3,5.3,0,0,1,6.2-6.2l3.3.4c2.1.2,2.7-.9,1.5-2.6l-2-2.7A5.3,5.3,0,0,1,68.5,85l3.1-1.3C73.5,82.8,73.5,81.5,71.6,80.7ZM41.2,92.8A10.6,10.6,0,1,1,51.8,82.2,10.6,10.6,0,0,1,41.2,92.8Z"/>
      <path class="cls-4" d="M41.2,64.5A17.6,17.6,0,1,0,58.9,82.2,17.6,17.6,0,0,0,41.2,64.5Z"/>
      <path class="cls-1" d="M66.2,70.9l-.4.6h43.4a17.6,17.6,0,0,0,2.5-35.1A28.2,28.2,0,0,0,59.5,16.2,21.1,21.1,0,0,0,31.6,36.3c-4.3-.5-10.1-2.8-19.1,1.5C5.5,41.2,1,48.7,1,53.9A17.6,17.6,0,0,0,16.5,71.4l-.3-.5-2-2.7c-1.2-1.7-.6-2.8,1.5-2.6l3.3.4A5.3,5.3,0,0,0,25.2,60l-.4-3.3c-.2-2,.9-2.7,2.6-1.5l2.7,2a5.3,5.3,0,0,0,8.4-2.3l1.3-3.1c.8-1.9,2.1-1.9,3,0L44,54.9a5.3,5.3,0,0,0,8.4,2.3l2.7-2c1.7-1.2,2.8-.6,2.6,1.5L57.3,60a5.3,5.3,0,0,0,6.2,6.2l3.3-.4c2-.2,2.7.9,1.5,2.6Z"/>
      <path class="cls-4" d="M106.5,91.2a3.6,3.6,0,0,1-1.9-1.8l-.3-.7a3.6,3.6,0,0,1,.1-2.6l1.8-3.7-1.4-1.4L101,82.8a3.6,3.6,0,0,1-2.6.1l-.7-.3A3.6,3.6,0,0,1,96,80.8l-1.4-3.9h-2l-1.4,3.9a3.6,3.6,0,0,1-1.8,1.9l-.7.3a3.6,3.6,0,0,1-2.6-.1l-3.7-1.8h0l-1.4,1.4,1.8,3.7a3.6,3.6,0,0,1,.1,2.6l-.3.7a3.6,3.6,0,0,1-1.9,1.8l-3.9,1.4h0v2h0L80.8,96a3.6,3.6,0,0,1,1.9,1.8l.3.7a3.6,3.6,0,0,1-.1,2.6l-1.8,3.7,1.4,1.4h0l3.7-1.8a3.6,3.6,0,0,1,2.6-.1l.7.3a3.6,3.6,0,0,1,1.8,1.9l1.4,3.9h2l1.4-3.9a3.6,3.6,0,0,1,1.8-1.9l.7-.3a3.6,3.6,0,0,1,2.6.1l3.7,1.8h0l1.4-1.4-1.8-3.7a3.6,3.6,0,0,1-.1-2.6l.3-.7a3.6,3.6,0,0,1,1.9-1.8l3.9-1.4h0v-2h0ZM93.6,98A4.4,4.4,0,1,1,98,93.6,4.4,4.4,0,0,1,93.6,98Z"/>
      <path class="cls-4" d="M101.6,93.6a7.9,7.9,0,1,1-7.9-7.9A7.9,7.9,0,0,1,101.6,93.6Z"/>
    </g>
  </g>
</svg>
