<svg xmlns="http://www.w3.org/2000/svg" viewBox="0 0 116.7 116.1">
  <defs>
    <style>
      .cls-1 {
        fill: none;
      }

      .cls-1, .cls-2, .cls-3, .cls-4, .cls-5, .cls-6, .cls-7 {
        stroke: #3d729a;
        stroke-linecap: round;
        stroke-linejoin: round;
      }

      .cls-1, .cls-2 {
        stroke-width: 2px;
      }

      .cls-2 {
        fill: #5693ab;
      }

      .cls-3, .cls-4, .cls-7 {
        fill: #d8eaf8;
      }

      .cls-4 {
        stroke-width: 0.75px;
      }

      .cls-5, .cls-6 {
        fill: #fff;
      }

      .cls-6, .cls-7 {
        stroke-width: 0.5px;
      }
    </style>
  </defs>
  <title>DDOS</title>
  <g id="Camada_2" data-name="Camada 2">
    <g id="Camada_1-2" data-name="Camada 1">
      <path class="cls-1" d="M44,29.7a28.5,28.5,0,0,1,3.2-13.2A28.5,28.5,0,0,0,44,29.7Z"/>
      <path class="cls-1" d="M18.9,36.8a17.8,17.8,0,0,1,7.2,1.5A17.8,17.8,0,0,0,18.9,36.8Z"/>
      <path class="cls-1" d="M100.3,37a28.2,28.2,0,0,1-1.4,4.2A28.6,28.6,0,0,1,93,49.9a28.6,28.6,0,0,0,5.9-8.7A28.2,28.2,0,0,0,100.3,37Z"/>
      <path class="cls-2" d="M87,104.9a3.6,3.6,0,0,1-3.6,3.6H33.3a3.6,3.6,0,0,1-3.6-3.6V54.8a3.6,3.6,0,0,1,3.6-3.6H83.4A3.6,3.6,0,0,1,87,54.8Z"/>
      <rect class="cls-3" x="35" y="56.5" width="46.6" height="46.59"/>
      <polygon class="cls-4" points="40.4 115.7 36.8 115.7 36.8 108.5 42.2 108.5 40.4 115.7"/>
      <polygon class="cls-4" points="76.3 115.7 79.8 115.7 79.8 108.5 74.5 108.5 76.3 115.7"/>
      <path class="cls-5" d="M58.3,63.7A16.1,16.1,0,1,0,74.5,79.8,16.1,16.1,0,0,0,58.3,63.7Zm0,29.6A13.4,13.4,0,1,1,71.8,79.8,13.4,13.4,0,0,1,58.3,93.3Z"/>
      <circle class="cls-6" cx="58.3" cy="79.8" r="5.4"/>
      <path class="cls-6" d="M62.5,83.2a5.4,5.4,0,0,1-2.3,1.7L65,91.5a13.2,13.2,0,0,0,2.3-1.7Z"/>
      <path class="cls-6" d="M63.7,79.6l7.8-2.5a13.1,13.1,0,0,0-.9-2.7l-7.8,2.5A5.3,5.3,0,0,1,63.7,79.6Z"/>
      <path class="cls-6" d="M54.1,83.2l-4.8,6.6a13.4,13.4,0,0,0,2.3,1.7l4.8-6.6A5.3,5.3,0,0,1,54.1,83.2Z"/>
      <path class="cls-6" d="M53,79.6a5.4,5.4,0,0,1,.9-2.7l-7.8-2.5a13.1,13.1,0,0,0-.9,2.7Z"/>
      <path class="cls-6" d="M59.8,74.7V66.5H56.9v8.1l1.4-.2Z"/>
      <path class="cls-1" d="M100.3,37A28.6,28.6,0,0,0,47.2,16.5,21.5,21.5,0,0,0,18.9,36.8a17.9,17.9,0,0,0,0,35.8H29.7V54.8a3.6,3.6,0,0,1,3.6-3.6H83.4A3.6,3.6,0,0,1,87,54.8V72.7H97.8A17.9,17.9,0,0,0,100.3,37Z"/>
      <circle class="cls-6" cx="74.5" cy="96" r="3.6"/>
      <circle class="cls-7" cx="74.5" cy="96" r="1.4"/>
    </g>
  </g>
</svg>
