<svg xmlns="http://www.w3.org/2000/svg" viewBox="0 0 115.5 115.5">
  <defs>
    <style>
      .cls-1, .cls-4 {
        fill: #d8eaf8;
      }

      .cls-1, .cls-2, .cls-3, .cls-4, .cls-5, .cls-6, .cls-7, .cls-8, .cls-9 {
        stroke: #3d729a;
        stroke-linecap: round;
        stroke-linejoin: round;
      }

      .cls-1, .cls-3, .cls-7 {
        stroke-width: 2px;
      }

      .cls-2, .cls-7, .cls-8 {
        fill: none;
      }

      .cls-2, .cls-4, .cls-5, .cls-9 {
        stroke-width: 0.75px;
      }

      .cls-3, .cls-6, .cls-9 {
        fill: #5693ab;
      }

      .cls-5 {
        fill: #fff;
      }

      .cls-8 {
        stroke-width: 1.25px;
      }
    </style>
  </defs>
  <title>Redundância</title>
  <g id="Camada_2" data-name="Camada 2">
    <g id="Camada_1-2" data-name="Camada 1">
      <path class="cls-1" d="M64.8,64.8a19.7,19.7,0,0,1,7.1,1.4V52.4H1V73.7H48.3A19.8,19.8,0,0,1,64.8,64.8Z"/>
      <path class="cls-2" d="M71.9,31.1a24.6,24.6,0,0,0,17.7-7.5A24.6,24.6,0,0,1,71.9,31.1Z"/>
      <path class="cls-2" d="M71.9,56A24.2,24.2,0,0,1,88.7,97.6,24.2,24.2,0,0,0,71.9,56Z"/>
      <rect class="cls-3" x="1" y="25.8" width="70.9" height="21.28"/>
      <rect class="cls-4" x="6.3" y="31.1" width="17.7" height="4.25"/>
      <rect class="cls-5" x="6.3" y="38.9" width="5.3" height="2.84"/>
      <circle class="cls-5" cx="65.2" cy="40.4" r="1.4"/>
      <circle class="cls-5" cx="59.5" cy="40.4" r="1.4"/>
      <circle class="cls-5" cx="53.8" cy="40.4" r="1.4"/>
      <rect class="cls-4" x="27.6" y="31.1" width="4.3" height="4.25"/>
      <rect class="cls-4" x="31.8" y="31.1" width="17" height="4.25"/>
      <rect class="cls-4" x="62.3" y="31.1" width="4.3" height="4.25"/>
      <rect class="cls-5" x="27.6" y="38.9" width="21.3" height="2.84"/>
      <rect class="cls-6" x="6.3" y="57.7" width="17.7" height="4.25"/>
      <rect class="cls-5" x="6.3" y="65.5" width="5.3" height="2.84"/>
      <rect class="cls-6" x="27.6" y="57.7" width="4.3" height="4.25"/>
      <rect class="cls-6" x="31.8" y="57.7" width="17" height="4.25"/>
      <rect class="cls-6" x="62.3" y="57.7" width="4.3" height="4.25"/>
      <rect class="cls-5" x="27.6" y="65.5" width="21.3" height="2.84"/>
      <rect class="cls-7" x="4.5" y="47.1" width="63.8" height="5.32"/>
      <rect class="cls-6" x="6.3" y="84.3" width="17.7" height="4.25"/>
      <rect class="cls-4" x="6.3" y="92.1" width="5.3" height="2.84"/>
      <rect class="cls-6" x="27.6" y="84.3" width="4.3" height="4.25"/>
      <path class="cls-7" d="M79,15.2a14.1,14.1,0,0,1,1.6-6.5A14.1,14.1,0,0,0,79,15.2Z"/>
      <path class="cls-7" d="M106.9,18.8a15,15,0,0,1-.7,2.1,14.2,14.2,0,0,1-3.1,4.5,14.2,14.2,0,0,0,3.1-4.5A14.7,14.7,0,0,0,106.9,18.8Z"/>
      <path class="cls-8" d="M47.4,114.5a12.4,12.4,0,0,1-1.8-24.7,19.5,19.5,0,0,1-.7-5.1,19.8,19.8,0,0,1,37.5-9.1A14.9,14.9,0,0,1,102,89.6a12.4,12.4,0,1,1,0,24.8Z"/>
      <path class="cls-7" d="M84.7,84.7a19.7,19.7,0,0,0-2.2-9.1A19.7,19.7,0,0,1,84.7,84.7Z"/>
      <path class="cls-7" d="M45.7,89.8a19.3,19.3,0,0,0,1,2.9A19.8,19.8,0,0,0,51,98.9a19.8,19.8,0,0,1-4.4-6.3A19.4,19.4,0,0,1,45.7,89.8Z"/>
      <path class="cls-7" d="M106.9,18.8a14,14,0,0,0,.5-3.6A14.2,14.2,0,0,0,80.6,8.6a10.6,10.6,0,0,0-14,10.1,8.9,8.9,0,0,0-8.7,7.1h14V36.5h33.7a8.9,8.9,0,0,0,1.3-17.6Z"/>
      <path class="cls-7" d="M47.4,114.5a12.4,12.4,0,0,1-1.8-24.7,19.5,19.5,0,0,1-.7-5.1,19.8,19.8,0,0,1,37.5-9.1A14.9,14.9,0,0,1,102,89.6a12.4,12.4,0,1,1,0,24.8Z"/>
      <path class="cls-4" d="M40.1,92.1H27.6V95h9.7A12.3,12.3,0,0,1,40.1,92.1Z"/>
      <path class="cls-6" d="M45,84.7c0-.1,0-.2,0-.4H31.9v4.3H45.4A18.9,18.9,0,0,1,45,84.7Z"/>
      <path class="cls-7" d="M35,102a12.5,12.5,0,0,1,.2-1.8H4.5v14.2H8.1l3.5-7.1H36.3A12.3,12.3,0,0,1,35,102Z"/>
      <path class="cls-7" d="M45.7,89.8a19.5,19.5,0,0,1-.7-5.1,19.8,19.8,0,0,1,.8-5.7H1v21.3H35.2A12.4,12.4,0,0,1,45.7,89.8Z"/>
      <path class="cls-7" d="M48.3,73.7H4.5V79H45.8A19.8,19.8,0,0,1,48.3,73.7Z"/>
      <polygon class="cls-9" points="91.5 25.5 94.7 18.6 87.8 21.7 91.5 25.5"/>
      <polygon class="cls-9" points="86.9 95.7 83.7 102.6 90.6 99.4 86.9 95.7"/>
    </g>
  </g>
</svg>
