<svg xmlns="http://www.w3.org/2000/svg" viewBox="0 0 115.9 115.9">
  <defs>
    <style>
      .cls-1 {
        fill: #5693ab;
      }

      .cls-1, .cls-2, .cls-3, .cls-4, .cls-5, .cls-6, .cls-7 {
        stroke: #3d729a;
        stroke-linecap: round;
        stroke-linejoin: round;
      }

      .cls-1, .cls-4 {
        stroke-width: 2px;
      }

      .cls-2, .cls-6 {
        fill: #d8eaf8;
      }

      .cls-2, .cls-3, .cls-7 {
        stroke-width: 0.75px;
      }

      .cls-3, .cls-4 {
        fill: none;
      }

      .cls-5, .cls-7 {
        fill: #fff;
      }
    </style>
  </defs>
  <title>SSD</title>
  <g id="Camada_2" data-name="Camada 2">
    <g id="Camada_1-2" data-name="Camada 1">
      <path class="cls-1" d="M114.9,68.4a7.3,7.3,0,0,0-7.3-7.3H44a7.3,7.3,0,0,0-7.3,7.3v39.2a7.3,7.3,0,0,0,7.3,7.3h63.6a7.3,7.3,0,0,0,7.3-7.3Z"/>
      <path class="cls-2" d="M108.6,85.3a2.7,2.7,0,1,1-2.7,2.7A2.7,2.7,0,0,1,108.6,85.3Z"/>
      <circle class="cls-3" cx="41.5" cy="88" r="1"/>
      <path class="cls-4" d="M50.8,37.3a25.5,25.5,0,0,1,2.9-11.8A25.5,25.5,0,0,0,50.8,37.3Z"/>
      <path class="cls-4" d="M101.2,43.9A24.9,24.9,0,0,1,96,54a24.9,24.9,0,0,0,5.3-10.1Z"/>
      <path class="cls-4" d="M28.4,43.7a15.9,15.9,0,0,1,6.5,1.4A15.9,15.9,0,0,0,28.4,43.7Z"/>
      <path class="cls-4" d="M36.6,68.4A7.3,7.3,0,0,1,44,61.1h63.6A7.3,7.3,0,0,1,114,65a16,16,0,0,0-12.8-21.1A25.6,25.6,0,0,0,53.7,25.5,19.2,19.2,0,0,0,28.4,43.7a16,16,0,0,0,0,32h8.2Z"/>
      <circle class="cls-3" cx="13.6" cy="6.8" r="0.9"/>
      <path class="cls-3" d="M17.4,6.8h0Z"/>
      <path class="cls-1" d="M12.4,59.7a16,16,0,0,1,16-16A19.2,19.2,0,0,1,43.1,25.1V8a7,7,0,0,0-7-7H8A7,7,0,0,0,1,8V68.8a7,7,0,0,0,7,7H28.4A16,16,0,0,1,12.4,59.7Z"/>
      <path class="cls-5" d="M12.4,59.7a16,16,0,0,1,16-16A19.2,19.2,0,0,1,39.6,26.3V13.8a1.2,1.2,0,0,0-1.2-1.2H5.7a1.2,1.2,0,0,0-1.2,1.2V62.9a1.2,1.2,0,0,0,1.2,1.2H13A16,16,0,0,1,12.4,59.7Z"/>
      <path class="cls-5" d="M46.4,68.3V110a1.2,1.2,0,0,0,1.2,1.2h53.9a1.2,1.2,0,0,0,1.2-1.2V68.3Z"/>
      <path class="cls-5" d="M92,68.3H46.4V66a1.2,1.2,0,0,1,1.2-1.2H92Z"/>
      <path class="cls-5" d="M99.1,68.3h3.6V66a1.2,1.2,0,0,0-1.2-1.2H99.1Z"/>
      <rect class="cls-6" x="95.6" y="64.8" width="3.6" height="3.56"/>
      <rect class="cls-5" x="92" y="64.8" width="3.6" height="3.56"/>
      <path class="cls-5" d="M75.1,77.3a3.6,3.6,0,0,0,3.6,3.6H84L75.1,72Z"/>
      <path class="cls-6" d="M75.1,77.3a3.6,3.6,0,0,0,3.6,3.6H84V104a3.6,3.6,0,0,1-3.6,3.6H59a3.6,3.6,0,0,1-3.6-3.6V75.5A3.6,3.6,0,0,1,59,72h16Z"/>
      <path class="cls-5" d="M80,30.2A2.8,2.8,0,0,0,82.9,33h4.3L80,25.9Z"/>
      <path class="cls-6" d="M80,30.2A2.8,2.8,0,0,0,82.9,33h4.3V51.6a2.8,2.8,0,0,1-2.8,2.9H67.2a2.8,2.8,0,0,1-2.8-2.8V28.8a2.8,2.8,0,0,1,2.8-2.8H80Z"/>
      <path class="cls-5" d="M19.8,19.5A2.1,2.1,0,0,0,22,21.6h3.2l-5.3-5.3Z"/>
      <path class="cls-6" d="M19.8,19.5A2.1,2.1,0,0,0,22,21.6h3.2V35.5A2.1,2.1,0,0,1,23,37.6H10.2a2.1,2.1,0,0,1-2.1-2.1V18.4a2.1,2.1,0,0,1,2.1-2.1h9.6Z"/>
      <path class="cls-3" d="M59.8,50.8a30.2,30.2,0,0,0,0,42.7A30.2,30.2,0,0,1,59.8,50.8Z"/>
      <path class="cls-3" d="M59.8,45.5A54.3,54.3,0,0,1,20.6,28.9,54.3,54.3,0,0,0,59.8,45.5Z"/>
      <rect class="cls-2" x="8.1" y="41.2" width="7.1" height="3.56"/>
      <rect class="cls-2" x="87.5" y="93.4" width="5.3" height="3.56"/>
      <rect class="cls-2" x="87.5" y="86.2" width="10.7" height="3.55"/>
      <rect class="cls-2" x="87.5" y="104" width="10.7" height="3.56"/>
      <polygon class="cls-7" points="57.9 95.5 64.8 98.6 61.6 91.7 57.9 95.5"/>
      <polygon class="cls-7" points="22.5 27 15.5 23.8 18.7 30.8 22.5 27"/>
    </g>
  </g>
</svg>
