<svg xmlns="http://www.w3.org/2000/svg" viewBox="0 0 379.5 379.5">
  <defs>
    <style>
      .cls-1, .cls-7 {
        fill: none;
      }

      .cls-1, .cls-2, .cls-3, .cls-4, .cls-5, .cls-6, .cls-7 {
        stroke: #3d729a;
        stroke-linecap: round;
        stroke-linejoin: round;
      }

      .cls-1, .cls-4, .cls-5 {
        stroke-width: 3px;
      }

      .cls-2, .cls-5 {
        fill: #5693ab;
      }

      .cls-2, .cls-3, .cls-6, .cls-7 {
        stroke-width: 2px;
      }

      .cls-3 {
        fill: #fff;
      }

      .cls-4, .cls-6 {
        fill: #d8eaf8;
      }
    </style>
  </defs>
  <title>Ativo 12</title>
  <g id="Camada_2" data-name="Camada 2">
    <g id="Camada_1-2" data-name="Camada 1">
      <g id="server">
        <path class="cls-1" d="M360.3,104.4v55.9H125V104.4H107.4V378h11.8l5.9-23.5H360.3l5.9,23.5H378V104.4Zm0,232.4H125V266.2H360.3Zm0-88.2H125V178H360.3Z"/>
        <polygon class="cls-1" points="25 378 1.5 378 1.5 95.6 25 72.1 25 378"/>
        <rect class="cls-1" x="48.6" y="354.5" width="23.5" height="23.53"/>
        <rect class="cls-2" x="48.5" y="60.3" width="35.3" height="11.77"/>
        <polygon class="cls-1" points="213.3 378 119.2 378 125 354.5 213.3 354.5 213.3 378"/>
        <polygon class="cls-1" points="213.3 89.7 125 89.7 125 104.4 107.4 104.4 107.4 72.1 142.7 36.8 213.3 36.8 213.3 89.7"/>
        <path class="cls-1" d="M107.4,45.6v0Z"/>
        <path class="cls-1" d="M213.3,36.8v0Z"/>
        <path class="cls-1" d="M195.6,36.8v0Z"/>
        <polygon class="cls-1" points="107.4 72.1 122.5 57 48.5 1.5 25 1.5 25 95.6 107.4 95.6 107.4 72.1"/>
        <rect class="cls-1" x="125" y="89.7" width="235.3" height="70.6"/>
        <rect class="cls-2" x="142.7" y="107.4" width="58.8" height="14.11"/>
        <rect class="cls-2" x="142.7" y="133.3" width="17.6" height="9.41"/>
        <path class="cls-3" d="M342.7,138a4.7,4.7,0,1,1-4.7-4.7A4.7,4.7,0,0,1,342.7,138Z"/>
        <rect class="cls-3" x="328.6" y="107.4" width="14.1" height="14.11"/>
        <rect class="cls-3" x="213.3" y="133.3" width="70.6" height="9.41"/>
        <rect class="cls-4" x="125" y="178" width="235.3" height="70.59"/>
        <rect class="cls-2" x="142.7" y="195.6" width="58.8" height="14.12"/>
        <rect class="cls-2" x="142.7" y="221.5" width="17.6" height="9.41"/>
        <path class="cls-3" d="M342.7,226.2a4.7,4.7,0,1,1-4.7-4.7A4.7,4.7,0,0,1,342.7,226.2Z"/>
        <rect class="cls-3" x="328.6" y="195.6" width="14.1" height="14.12"/>
        <rect class="cls-3" x="213.3" y="221.5" width="70.6" height="9.41"/>
        <rect class="cls-5" x="125" y="266.2" width="235.3" height="70.59"/>
        <rect class="cls-6" x="142.7" y="283.9" width="58.8" height="14.12"/>
        <rect class="cls-7" x="142.7" y="309.7" width="17.6" height="9.41"/>
        <path class="cls-3" d="M342.7,314.5a4.7,4.7,0,1,1-4.7-4.7A4.7,4.7,0,0,1,342.7,314.5Z"/>
        <rect class="cls-3" x="328.6" y="283.9" width="14.1" height="14.12"/>
        <rect class="cls-3" x="213.3" y="309.7" width="70.6" height="9.41"/>
        <polygon class="cls-4" points="48.6 330.9 48.6 307.4 107.4 307.4 107.4 283.9 48.6 283.9 48.6 260.3 107.4 260.3 107.4 236.8 48.6 236.8 48.6 213.3 107.4 213.3 107.4 189.7 48.6 189.7 48.6 166.2 107.4 166.2 107.4 142.7 48.6 142.7 48.6 119.2 107.4 119.2 107.4 95.6 25 95.6 25 378 48.6 378 48.6 354.5 72.1 354.5 72.1 378 107.4 378 107.4 330.9 48.6 330.9"/>
        <rect class="cls-5" x="48.6" y="260.3" width="58.8" height="23.53"/>
      </g>
    </g>
  </g>
</svg>
