<?xml version="1.0" encoding="utf-8"?>
<!-- Generator: Adobe Illustrator 21.1.0, SVG Export Plug-In . SVG Version: 6.00 Build 0)  -->
<svg version="1.1" id="Camada_1" xmlns="http://www.w3.org/2000/svg" xmlns:xlink="http://www.w3.org/1999/xlink" x="0px" y="0px"
	 viewBox="0 0 87.6 87.6" style="enable-background:new 0 0 87.6 87.6;" xml:space="preserve">
<style type="text/css">
	.st0{fill:none;stroke:#3D729A;stroke-width:2;stroke-linecap:round;stroke-linejoin:round;stroke-miterlimit:10;}
	.st1{fill:#5693AB;stroke:#3D729A;stroke-linecap:round;stroke-linejoin:round;stroke-miterlimit:10;}
	.st2{fill:#D8EAF8;stroke:#3D729A;stroke-linecap:round;stroke-linejoin:round;stroke-miterlimit:10;}
	.st3{fill:none;stroke:#3D729A;stroke-linecap:round;stroke-linejoin:round;stroke-miterlimit:10;}
</style>
<g id="Firewall" transform="translate(1739.6 2550.8)">
	<path id="Path_234" class="st0" d="M-1738.7-2523l0.3,57.5c0,0.9,0.7,1.6,1.6,1.5l82.5-0.4c0.9,0,1.6-0.7,1.5-1.6l-0.3-55.9
		c0-0.9-0.7-1.6-1.6-1.5l-18.5,0.1c0.3-1.1,0.4-2.3,0.4-3.4c-0.1-12.8-10.5-23.1-23.3-23s-23.1,10.5-23,23.3c0,0,0,0,0,0
		c0,1.1,0.2,2.3,0.4,3.4l0,0L-1738.7-2523z"/>
	<g id="Interno" transform="translate(6.676 6.98)">
		<path id="Path_235" class="st1" d="M-1740.5-2513.4l8.8,0c0.9,0,1.6,0.7,1.6,1.5l0,7.4c0,0.9-0.7,1.6-1.5,1.6l-8.8,0
			c-0.9,0-1.6-0.7-1.6-1.5l0-7.4C-1742-2512.7-1741.3-2513.4-1740.5-2513.4z"/>
		<path id="Path_236" class="st2" d="M-1740.4-2499.5l21.3-0.1c0.9,0,1.6,0.7,1.6,1.5l0,7.4c0,0.9-0.7,1.6-1.5,1.6l-21.3,0.1
			c-0.9,0-1.6-0.7-1.6-1.5l0-7.4C-1742-2498.8-1741.3-2499.5-1740.4-2499.5C-1740.4-2499.5-1740.4-2499.5-1740.4-2499.5z"/>
		<path id="Path_237" class="st3" d="M-1716.9-2513.5c1.8,2.8,3.7,5.5,5.6,8c0.5,0.7,0.4,1.7-0.3,2.2c-0.3,0.2-0.6,0.3-0.9,0.3
			l-12.5,0.1c-0.9,0-1.6-0.7-1.6-1.5l0-7.4c0-0.9,0.7-1.6,1.5-1.6L-1716.9-2513.5L-1716.9-2513.5z"/>
		<path id="Path_238" class="st3" d="M-1677.3-2512.1l0,7.4c0,0.9-0.7,1.6-1.5,1.6l-16.6,0.1c0,0,0,0,0,0.1
			c2.3-3.1,4.9-6.8,7.4-10.6l9.1,0C-1678-2513.7-1677.3-2513-1677.3-2512.1C-1677.3-2512.1-1677.3-2512.1-1677.3-2512.1z"/>
		<path id="Path_239" class="st1" d="M-1691.1-2499.7l0,8.9c0,0.9-0.7,1.6-1.5,1.6l-19.9,0.1c-0.9,0-1.6-0.7-1.6-1.5l0-7.4
			c0-0.9,0.7-1.6,1.5-1.6l5,0c0.5,0,0.9,0.2,1.2,0.6l2.8,3.4c0.5,0.7,1.5,0.8,2.2,0.2c0.1-0.1,0.2-0.2,0.2-0.2l2.7-3.4
			c0.3-0.4,0.7-0.6,1.2-0.6L-1691.1-2499.7z"/>
		<path id="Path_240" class="st1" d="M-1731.5-2474.8l-8.8,0c-0.9,0-1.6-0.7-1.6-1.5l0-7.7c0-0.9,0.7-1.6,1.5-1.6l8.8,0
			c0.9,0,1.6,0.7,1.6,1.5l0,7.7C-1729.9-2475.5-1730.6-2474.8-1731.5-2474.8z"/>
		<path id="Path_241" class="st3" d="M-1705.1-2474.9l-19.9,0.1c-0.9,0-1.6-0.7-1.6-1.5l0-7.7c0-0.9,0.7-1.6,1.5-1.6l19.9-0.1
			c0.9,0,1.6,0.7,1.6,1.5l0,7.7C-1703.5-2475.7-1704.2-2474.9-1705.1-2474.9C-1705.1-2474.9-1705.1-2474.9-1705.1-2474.9z"/>
		<path id="Path_242" class="st3" d="M-1678.7-2475.1l-19.9,0.1c-0.9,0-1.6-0.7-1.6-1.5l0-7.7c0-0.9,0.7-1.6,1.5-1.6l19.9-0.1
			c0.9,0,1.6,0.7,1.6,1.6l0,7.7C-1677.1-2475.8-1677.8-2475.1-1678.7-2475.1C-1678.6-2475.1-1678.7-2475.1-1678.7-2475.1z"/>
		<path id="Path_243" class="st1" d="M-1664.3-2475.2l-7.9,0c-0.9,0-1.6-0.7-1.6-1.5l0-7.7c0-0.9,0.7-1.6,1.5-1.6l7.9,0
			c0.9,0,1.6,0.7,1.6,1.6l0,7.7C-1662.8-2475.9-1663.4-2475.2-1664.3-2475.2z"/>
		<path id="Path_244" class="st2" d="M-1664.4-2489.4l-21.8,0.1c-0.9,0-1.6-0.7-1.6-1.5l0-7.4c0-0.9,0.7-1.6,1.5-1.6l21.8-0.1
			c0.9,0,1.6,0.7,1.6,1.6l0,7.4C-1662.8-2490.1-1663.5-2489.4-1664.4-2489.4z"/>
		<path id="Path_245" class="st1" d="M-1664.5-2503.3l-7.9,0c-0.9,0-1.6-0.7-1.6-1.5l0-7.4c0-0.9,0.7-1.6,1.5-1.6l7.9,0
			c0.9,0,1.6,0.7,1.6,1.5l0,7.4C-1662.9-2504-1663.6-2503.3-1664.5-2503.3z"/>
		<path id="Path_246" class="st2" d="M-1663-2527.7l0,8.9c0,0.9-0.7,1.6-1.5,1.6l-21.4,0.1c1.8-3,3.4-6.2,4.7-9.5
			c0.2-0.6,0.8-1,1.5-1L-1663-2527.7z"/>
		<path id="Path_247" class="st2" d="M-1725.4-2527.4c0.7,0,1.2,0.4,1.5,1c1.3,3.3,3,6.4,4.8,9.5l-21.4,0.1c-0.9,0-1.6-0.7-1.6-1.5
			l0-7.4c0-0.9,0.7-1.6,1.5-1.6L-1725.4-2527.4z"/>
		<path id="Path_248" class="st1" d="M-1702.7-2553.8c10.9,0,19.8,8.7,19.8,19.6c0,9.1-13.9,27.5-18.4,33.2
			c-0.5,0.7-1.5,0.8-2.2,0.3c-0.1-0.1-0.2-0.2-0.2-0.2c-4.5-5.7-18.7-24.2-18.7-33C-1722.4-2544.8-1713.6-2553.7-1702.7-2553.8z
			 M-1688.7-2538.9c0-7.7-6.3-13.9-14-13.8c-7.7,0-13.9,6.3-13.8,14c0,6.5,9.4,18.3,12.8,22.4c0.6,0.7,1.5,0.8,2.2,0.2
			c0.1-0.1,0.1-0.1,0.2-0.2C-1698-2520.5-1688.7-2532.4-1688.7-2538.9L-1688.7-2538.9z"/>
		<path id="Path_249" class="st2" d="M-1702.8-2549.4l0.3,0c3,0.2,5.4,2.6,5.5,5.6c0,1.7-2.1,5.3-4.3,8.4c-0.5,0.7-1.5,0.9-2.2,0.4
			c-0.1-0.1-0.3-0.2-0.4-0.4c-2.3-3.1-4.4-6.6-4.4-8.3C-1708.2-2546.7-1705.8-2549.2-1702.8-2549.4z"/>
		<path id="Path_250" class="st2" d="M-1710.3-2539.4c1.8,3.4,4,6.6,6.6,9.6c0.6,0.7,1.5,0.8,2.2,0.2c0.1-0.1,0.1-0.1,0.2-0.2
			c2.5-3,4.7-6.2,6.5-9.6c0.3-0.7,1.2-1.1,2-0.7c0.5,0.2,0.8,0.8,0.9,1.3l0,0.1c0,4-5.4,12.1-9.2,17.1c-0.5,0.7-1.5,0.8-2.2,0.3
			c-0.1-0.1-0.2-0.2-0.3-0.3c-3.9-5-9.4-13-9.4-17l0-0.1c0-0.8,0.7-1.5,1.5-1.5C-1711.1-2540.3-1710.6-2540-1710.3-2539.4z"/>
	</g>
</g>
</svg>
